HIERARCHY
ROOT Root
{
	OFFSET 0.00 0.00 0.00
	CHANNELS 6 Xposition Yposition Zposition Xrotation Yrotation Zrotation
	JOINT L_Femur
	{
		OFFSET 3.69615 0.00000 0.00000
		CHANNELS 3 Xrotation Yrotation Zrotation
		JOINT L_Tibia
		{
			OFFSET 0.00000 -15.48154 0.00000
			CHANNELS 3 Xrotation Yrotation Zrotation
			JOINT L_Foot
			{
				OFFSET 0.00000 -15.45804 0.00000
				CHANNELS 3 Xrotation Yrotation Zrotation
				JOINT L_Toe
				{
					OFFSET 0.00000 -1.61659 6.03322
					CHANNELS 3 Xrotation Yrotation Zrotation
					End Site
					{
						OFFSET 0.00000 0.00000 2.95275
					}
				}
			}
		}
	}
	JOINT R_Femur
	{
		OFFSET -3.69615 0.00000 0.00000
		CHANNELS 3 Xrotation Yrotation Zrotation
		JOINT R_Tibia
		{
			OFFSET 0.00000 -15.48154 0.00000
			CHANNELS 3 Xrotation Yrotation Zrotation
			JOINT R_Foot
			{
				OFFSET 0.00000 -15.45804 0.00000
				CHANNELS 3 Xrotation Yrotation Zrotation
				JOINT R_Toe
				{
					OFFSET 0.00000 -1.61659 6.03322
					CHANNELS 3 Xrotation Yrotation Zrotation
					End Site
					{
						OFFSET 0.00000 0.00000 2.95275
					}
				}
			}
		}
	}
	JOINT LowerBack
	{
		OFFSET 0.00000 0.03937 0.00000
		CHANNELS 3 Xrotation Yrotation Zrotation
		JOINT Thorax
		{
			OFFSET 0.00000 8.86644 0.00000
			CHANNELS 3 Xrotation Yrotation Zrotation
			JOINT Neck
			{
				OFFSET 0.00000 9.52797 0.00000
				CHANNELS 3 Xrotation Yrotation Zrotation
				JOINT Head
				{
					OFFSET 0.00000 6.76959 0.00000
					CHANNELS 3 Xrotation Yrotation Zrotation
					End Site
					{
						OFFSET 0.00000 4.52755 0.00000
					}
				}
			}
			JOINT L_Collar
			{
				OFFSET 0.00000 9.52797 0.00000
				CHANNELS 3 Xrotation Yrotation Zrotation
				JOINT L_Humerus
				{
					OFFSET 6.91428 -0.00003 0.00000
					CHANNELS 3 Xrotation Yrotation Zrotation
					JOINT L_Elbow
					{
						OFFSET 11.23919 -0.00004 0.00000
						CHANNELS 3 Xrotation Yrotation Zrotation
						JOINT L_Wrist
						{
							OFFSET 9.07538 -0.00003 0.00000
							CHANNELS 3 Xrotation Yrotation Zrotation
							JOINT L_Thumb
							{
								OFFSET 0.00000 0.00000 0.00000
								CHANNELS 3 Xrotation Yrotation Zrotation
								End Site
								{
									OFFSET 0.00000 0.00000 3.93700
								}
							}
							End Site
							{
								OFFSET 3.93700 -0.00001 0.00000
							}
						}
					}
				}
			}
			JOINT R_Collar
			{
				OFFSET 0.00000 9.52797 0.00000
				CHANNELS 3 Xrotation Yrotation Zrotation
				JOINT R_Humerus
				{
					OFFSET -6.91428 -0.00003 0.00000
					CHANNELS 3 Xrotation Yrotation Zrotation
					JOINT R_Elbow
					{
						OFFSET -11.23919 -0.00004 0.00000
						CHANNELS 3 Xrotation Yrotation Zrotation
						JOINT R_Wrist
						{
							OFFSET -9.07538 -0.00003 0.00000
							CHANNELS 3 Xrotation Yrotation Zrotation
							JOINT R_Thumb
							{
								OFFSET 0.00000 0.00000 0.00000
								CHANNELS 3 Xrotation Yrotation Zrotation
								End Site
								{
									OFFSET 0.00000 0.00000 3.93700
								}
							}
							End Site
							{
								OFFSET -5.39369 -0.00002 0.00000
							}
						}
					}
				}
			}
		}
	}
}
MOTION
Frames: 13
Frame Time: 0.033332
 14.7662 33.3441 14.2088 -10.1433 -74.9626 -11.8157 1.9194 10.0639 6.8113 13.9134 0.0000 -0.0000 -8.9781 -12.0718 -16.3391 -31.0264 0.0000 0.0000 9.9298 -14.6484 -1.1458 1.4220 0.0000 -0.0000 -1.4099 0.7030 31.9163 -20.0061 0.0000 -0.0000 -16.6046 -3.6593 -1.4635 26.6007 -4.5792 0.4621 17.9821 -6.8693 -0.8576 -11.1878 -5.8404 3.5036 1.5331 17.1516 20.2332 -12.6392 -6.1071 -52.4045 -0.0002 -41.9346 -0.0001 -15.2569 -15.6988 -9.5503 -0.0000 0.0000 -0.0000 0.9332 3.6745 -13.0531 -4.1457 1.3778 67.9213 -0.0003 52.9244 0.0001 -14.2848 -3.8155 9.4914 -0.0000 0.0000 -0.0000
 14.6876 33.3048 14.5804 -9.1025 -74.4288 -10.7352 2.1001 7.9689 5.9480 14.3105 -0.0000 0.0000 -9.5566 -10.6717 -15.9234 -31.1010 0.0000 0.0000 8.3294 -14.8896 -2.1165 4.6647 0.0000 -0.0000 -3.1073 0.1812 31.8123 -20.3556 -0.0000 -0.0000 -16.5419 -3.5327 -1.5664 26.7809 -4.2953 0.6762 18.0793 -7.5653 -0.7920 -10.6902 -6.6369 3.3005 2.3736 17.2223 19.2326 -10.8770 -9.2214 -57.6798 -0.0002 -43.7166 -0.0001 -16.9173 -15.3171 -12.4611 -0.0000 0.0000 -0.0000 1.4699 3.3197 -11.7789 -3.7357 4.5417 73.0567 -0.0003 54.1429 0.0001 -14.7561 -3.2897 9.4575 -0.0000 0.0000 -0.0000
 14.5944 33.2502 15.0081 -8.2447 -73.7555 -9.4403 2.6344 6.1969 4.6823 14.1063 0.0000 -0.0000 -9.9316 -9.7247 -15.9467 -31.1757 -0.0000 -0.0000 5.6591 -14.7119 -3.7988 10.0235 0.0000 -0.0000 -5.5242 -0.8399 31.3190 -20.8160 0.0000 -0.0000 -16.3399 -3.4265 -1.7358 26.8169 -4.2099 0.5524 18.2939 -8.0830 -0.7615 -10.7619 -7.2596 3.2018 3.0562 17.3631 18.0808 -9.8067 -12.6770 -62.9660 -0.0002 -44.3040 -0.0001 -18.8063 -15.8150 -13.7128 -0.0000 0.0000 -0.0000 1.9512 3.2599 -10.7792 -3.6308 6.4834 77.6858 -0.0003 55.4393 0.0002 -14.5236 -3.2586 10.0455 -0.0000 0.0000 -0.0000
 14.5092 33.1515 15.4605 -7.3263 -73.3346 -7.6283 2.9489 5.5323 3.0385 14.1197 -0.0000 -0.0000 -10.3657 -9.5675 -15.9809 -31.3448 -0.0000 -0.0000 1.5772 -13.3424 -6.1714 17.7354 0.0000 -0.0000 -7.9834 -2.6729 31.0288 -20.8927 0.0000 0.0000 -16.0954 -3.2084 -1.9072 26.7987 -4.3483 -0.1876 18.3788 -8.3446 -0.7195 -10.9881 -7.6114 3.2585 3.7463 17.3312 17.2549 -8.6221 -15.9102 -67.9462 -0.0002 -45.2933 -0.0001 -20.9690 -16.1439 -14.8155 -0.0000 0.0000 -0.0000 2.3084 3.1965 -10.4407 -3.9886 7.6243 82.1937 -0.0003 56.3543 0.0002 -14.0468 -3.0438 10.6411 -0.0000 0.0000 -0.0000
 14.3990 33.0401 15.8954 -6.7713 -73.2422 -6.2137 3.3220 5.0048 1.4676 14.2283 -0.0000 -0.0000 -10.8591 -9.2471 -16.0474 -31.3694 0.0000 0.0000 -3.0530 -11.4566 -8.2403 26.6811 0.0000 -0.0000 -9.0763 -5.3100 30.8858 -20.5052 0.0000 -0.0000 -15.7612 -3.0128 -1.6761 26.8268 -4.8777 -1.4541 18.4079 -8.0802 -0.9739 -11.4098 -7.9413 3.4047 4.5164 17.6636 15.8544 -7.2087 -19.7845 -71.1769 -0.0002 -47.1554 -0.0001 -22.5234 -15.8282 -15.8583 -0.0000 0.0000 -0.0000 2.0909 3.0419 -10.5076 -4.2837 8.8753 86.2815 -0.0003 56.8626 0.0002 -14.2810 -2.5723 9.8227 -0.0000 0.0000 -0.0000
 14.2104 32.9897 16.2406 -6.2014 -73.5747 -5.4646 3.7534 5.2254 0.7228 14.2216 0.0000 0.0000 -11.1726 -9.1334 -15.4313 -31.4710 0.0000 -0.0000 -7.7719 -8.7989 -8.8375 35.9931 0.0000 -0.0000 -7.9415 -9.1851 31.1315 -19.9712 0.0000 0.0000 -15.5489 -2.9809 -1.4099 26.9796 -5.1972 -2.0078 18.6891 -7.4607 -1.5080 -12.0984 -8.0124 2.9555 5.6100 18.2704 13.8265 -7.2112 -22.5842 -74.2583 -0.0002 -47.6825 -0.0001 -23.9391 -15.8122 -18.6849 -0.0000 0.0000 -0.0000 2.0480 3.0042 -10.7912 -4.4923 10.6904 88.9922 -0.0003 57.4956 0.0002 -14.8503 -1.8146 7.8674 -0.0000 0.0000 -0.0000
 13.9197 32.9824 16.5249 -5.9763 -73.9909 -5.6101 4.7534 5.5193 0.6548 13.4242 0.0000 -0.0000 -11.1697 -9.0404 -14.8287 -31.5610 0.0000 -0.0000 -12.2957 -7.5702 -8.3116 44.3199 0.0000 0.0000 -6.6597 -12.2797 27.9605 -19.0565 0.0000 -0.0000 -15.4340 -3.0454 -1.1568 27.2962 -5.3189 -2.0196 19.2324 -7.0201 -1.9155 -12.7859 -7.7803 2.1180 6.5983 18.3453 12.1560 -8.3617 -23.0533 -78.2433 -0.0002 -47.0668 -0.0001 -23.0913 -16.2265 -19.3449 -0.0000 0.0000 -0.0000 2.0917 2.9664 -11.2083 -4.2464 13.2916 90.1784 -0.0003 58.3020 0.0002 -14.5847 -1.0923 6.1397 -0.0000 0.0000 -0.0000
 13.5445 32.9972 16.7554 -4.6045 -74.1164 -4.8839 5.7785 6.4882 1.0551 12.0492 0.0000 -0.0000 -10.8357 -9.9506 -14.3309 -31.8177 0.0000 0.0000 -16.4261 -7.6459 -7.3178 49.7246 -0.0000 0.0000 -7.5712 -12.3937 27.5972 -18.8877 -0.0000 -0.0000 -15.5717 -3.2826 -0.9176 27.5010 -5.6204 -1.9972 19.6538 -6.6664 -2.1760 -12.7094 -7.4646 1.4510 7.2138 18.0257 11.0091 -9.7203 -22.2612 -82.2396 -0.0002 -46.0352 -0.0001 -22.3748 -17.4365 -17.1407 -0.0000 0.0000 -0.0000 2.0562 2.8792 -11.3032 -3.5224 16.3825 90.1009 -0.0003 58.6027 0.0002 -13.8595 0.2630 4.8649 -0.0000 0.0000 -0.0000
 13.1104 33.0207 16.9550 -2.8561 -74.0767 -4.0167 7.0220 8.1824 1.8096 10.0744 0.0000 0.0000 -10.7056 -11.6371 -15.0245 -31.5886 -0.0000 -0.0000 -19.9193 -8.4060 -5.9275 51.3539 -0.0000 0.0000 -7.0365 -9.5614 28.7754 -19.0122 0.0000 -0.0000 -15.6451 -3.6234 -0.6247 27.5728 -6.0115 -1.9188 19.8783 -6.4849 -2.2320 -12.1786 -7.0442 0.9008 7.3946 17.5394 10.2498 -11.1430 -20.9365 -85.8458 -0.0002 -45.0198 -0.0001 -23.0627 -18.7741 -15.0969 -0.0000 0.0000 -0.0000 1.9975 2.6001 -11.1832 -2.7346 19.3143 89.3635 -0.0003 57.6502 0.0002 -12.7710 1.7272 3.6025 -0.0000 0.0000 -0.0000
 12.6378 33.0130 17.1351 -1.0553 -73.9412 -3.0159 8.1436 9.5345 2.4953 8.3818 -0.0000 -0.0000 -10.5840 -13.0357 -15.4702 -31.2473 -0.0000 -0.0000 -22.7638 -9.5864 -4.5372 49.6116 0.0000 -0.0000 -6.2284 -6.3349 30.5654 -19.2614 -0.0000 0.0000 -15.6103 -4.0324 -0.4454 27.6270 -6.4862 -1.8835 20.0780 -6.3270 -2.2088 -12.0145 -6.5858 0.5828 7.2607 16.8879 9.9548 -12.3821 -19.8088 -88.7683 -0.0002 -45.1525 -0.0001 -23.1818 -19.6317 -13.3501 -0.0000 0.0000 -0.0000 1.8600 2.4163 -11.1389 -2.0886 21.0715 88.7626 -0.0003 55.1201 0.0002 -11.2992 2.5641 2.7216 -0.0000 0.0000 -0.0000
 12.1380 32.9546 17.3053 0.8721 -73.8206 -1.6081 9.0204 10.0496 2.8621 7.3048 0.0000 -0.0000 -10.7237 -13.5646 -15.4539 -31.5389 -0.0000 -0.0000 -25.1702 -10.4110 -3.2607 45.4241 -0.0000 0.0000 -5.0510 -4.2832 31.5874 -19.6923 -0.0000 -0.0000 -15.6073 -4.3523 -0.3789 27.8505 -6.9814 -2.0741 20.2585 -6.2286 -2.0587 -12.3824 -5.9977 0.4200 7.1030 16.0179 10.0035 -13.7225 -20.0179 -90.6251 -0.0002 -46.5534 -0.0001 -23.9476 -20.5435 -12.0905 -0.0000 0.0000 -0.0000 1.7323 2.5142 -10.8643 -1.4532 21.2417 88.2534 -0.0003 51.7306 0.0001 -9.7584 3.5511 0.9332 -0.0000 0.0000 -0.0000
 11.5899 32.8366 17.4729 2.5961 -73.7831 -0.1523 9.7362 10.6013 3.0514 6.9775 -0.0000 0.0000 -11.4076 -14.1155 -15.5012 -31.0491 -0.0000 -0.0000 -27.0581 -10.7811 -2.0500 39.4095 -0.0000 0.0000 -3.2619 -4.0190 31.7105 -19.9630 -0.0000 -0.0000 -15.5973 -4.5875 -0.5012 28.3109 -7.3107 -2.1864 20.3189 -6.0935 -1.9952 -12.9171 -5.5407 0.2039 6.9302 15.2100 10.0865 -15.5791 -21.7976 -91.4537 -0.0002 -48.5684 -0.0001 -24.9133 -21.1517 -11.6262 -0.0000 0.0000 -0.0000 1.6335 2.7100 -10.4037 -0.9874 20.2088 87.6285 -0.0002 47.9693 0.0001 -7.9975 2.9488 -0.5956 -0.0000 0.0000 -0.0000
 10.9548 32.6761 17.6497 3.4371 -73.8711 0.6842 10.9404 10.9940 2.9569 6.6011 0.0000 0.0000 -12.2214 -14.1687 -15.4042 -30.6650 0.0000 0.0000 -28.1932 -10.8945 -1.0434 32.2757 0.0000 -0.0000 -0.8550 -4.4047 31.2644 -19.9375 0.0000 -0.0000 -15.4600 -4.6668 -0.6583 28.8692 -7.5112 -2.3831 20.5290 -5.8223 -2.1305 -13.5148 -5.4412 0.1943 6.5389 14.6599 10.3662 -17.5666 -24.3630 -91.5689 -0.0003 -51.5457 -0.0001 -23.4020 -20.7603 -10.8797 -0.0000 0.0000 -0.0000 1.4933 2.8325 -9.9044 -0.6487 18.8655 87.0129 -0.0002 43.9384 0.0001 -5.6353 1.6064 -0.9552 -0.0000 0.0000 -0.0000
